<svg xmlns="http://www.w3.org/2000/svg" xmlns:xlink="http://www.w3.org/1999/xlink" width="500" zoomAndPan="magnify" viewBox="0 0 375 374.999991" height="500" preserveAspectRatio="xMidYMid meet" version="1.0"><defs><clipPath id="44a334030e"><path d="M 112.5 187.5 L 262.5 187.5 L 262.5 258 L 112.5 258 Z M 112.5 187.5 " clip-rule="nonzero"/></clipPath><clipPath id="0286dae0bf"><path d="M 138 108.710938 L 228.917969 108.710938 L 228.917969 222.710938 L 138 222.710938 Z M 138 108.710938 " clip-rule="nonzero"/></clipPath><clipPath id="ba2fb6f767"><path d="M 70 71 L 303 71 L 303 302 L 70 302 Z M 70 71 " clip-rule="nonzero"/></clipPath><clipPath id="f672188e89"><path d="M 21.105469 278.535156 L 96.3125 37.230469 L 344.773438 114.667969 L 269.566406 355.96875 Z M 21.105469 278.535156 " clip-rule="nonzero"/></clipPath><clipPath id="6d17c88397"><path d="M 21.105469 278.535156 L 96.3125 37.230469 L 344.773438 114.667969 L 269.566406 355.96875 Z M 21.105469 278.535156 " clip-rule="nonzero"/></clipPath><clipPath id="87a489c88f"><path d="M 21.105469 278.535156 L 96.3125 37.230469 L 344.773438 114.667969 L 269.566406 355.96875 Z M 21.105469 278.535156 " clip-rule="nonzero"/></clipPath><clipPath id="c0e1b30b24"><path d="M 64 75 L 308 75 L 308 307 L 64 307 Z M 64 75 " clip-rule="nonzero"/></clipPath><clipPath id="b4c0b5e311"><path d="M 21.105469 278.535156 L 96.3125 37.230469 L 344.773438 114.667969 L 269.566406 355.96875 Z M 21.105469 278.535156 " clip-rule="nonzero"/></clipPath><clipPath id="660aad8b06"><path d="M 21.105469 278.535156 L 96.3125 37.230469 L 344.773438 114.667969 L 269.566406 355.96875 Z M 21.105469 278.535156 " clip-rule="nonzero"/></clipPath><clipPath id="f0dc16dd63"><path d="M 21.105469 278.535156 L 96.3125 37.230469 L 344.773438 114.667969 L 269.566406 355.96875 Z M 21.105469 278.535156 " clip-rule="nonzero"/></clipPath><clipPath id="a6daf1b36d"><path d="M 59 117 L 313 117 L 313 312 L 59 312 Z M 59 117 " clip-rule="nonzero"/></clipPath><clipPath id="5655a7fe61"><path d="M 21.105469 278.535156 L 96.3125 37.230469 L 344.773438 114.667969 L 269.566406 355.96875 Z M 21.105469 278.535156 " clip-rule="nonzero"/></clipPath><clipPath id="6aa48d29d6"><path d="M 21.105469 278.535156 L 96.3125 37.230469 L 344.773438 114.667969 L 269.566406 355.96875 Z M 21.105469 278.535156 " clip-rule="nonzero"/></clipPath><clipPath id="dd9cf5f1d4"><path d="M 21.105469 278.535156 L 96.3125 37.230469 L 344.773438 114.667969 L 269.566406 355.96875 Z M 21.105469 278.535156 " clip-rule="nonzero"/></clipPath><clipPath id="ffd5ba2450"><path d="M 55 159 L 314 159 L 314 316 L 55 316 Z M 55 159 " clip-rule="nonzero"/></clipPath><clipPath id="1c80aee03d"><path d="M 21.105469 278.535156 L 96.3125 37.230469 L 344.773438 114.667969 L 269.566406 355.96875 Z M 21.105469 278.535156 " clip-rule="nonzero"/></clipPath><clipPath id="e041b191b3"><path d="M 21.105469 278.535156 L 96.3125 37.230469 L 344.773438 114.667969 L 269.566406 355.96875 Z M 21.105469 278.535156 " clip-rule="nonzero"/></clipPath><clipPath id="0a44e09516"><path d="M 21.105469 278.535156 L 96.3125 37.230469 L 344.773438 114.667969 L 269.566406 355.96875 Z M 21.105469 278.535156 " clip-rule="nonzero"/></clipPath><clipPath id="066054f55f"><path d="M 52 199 L 305 199 L 305 320 L 52 320 Z M 52 199 " clip-rule="nonzero"/></clipPath><clipPath id="474368f7d4"><path d="M 21.105469 278.535156 L 96.3125 37.230469 L 344.773438 114.667969 L 269.566406 355.96875 Z M 21.105469 278.535156 " clip-rule="nonzero"/></clipPath><clipPath id="abe4caaeb5"><path d="M 21.105469 278.535156 L 96.3125 37.230469 L 344.773438 114.667969 L 269.566406 355.96875 Z M 21.105469 278.535156 " clip-rule="nonzero"/></clipPath><clipPath id="8c645f9cf7"><path d="M 21.105469 278.535156 L 96.3125 37.230469 L 344.773438 114.667969 L 269.566406 355.96875 Z M 21.105469 278.535156 " clip-rule="nonzero"/></clipPath><clipPath id="1724fb4ecb"><path d="M 53 224 L 282 224 L 282 323 L 53 323 Z M 53 224 " clip-rule="nonzero"/></clipPath><clipPath id="7d3d8fb876"><path d="M 21.105469 278.535156 L 96.3125 37.230469 L 344.773438 114.667969 L 269.566406 355.96875 Z M 21.105469 278.535156 " clip-rule="nonzero"/></clipPath><clipPath id="d9804dd076"><path d="M 21.105469 278.535156 L 96.3125 37.230469 L 344.773438 114.667969 L 269.566406 355.96875 Z M 21.105469 278.535156 " clip-rule="nonzero"/></clipPath><clipPath id="49c41ecb99"><path d="M 21.105469 278.535156 L 96.3125 37.230469 L 344.773438 114.667969 L 269.566406 355.96875 Z M 21.105469 278.535156 " clip-rule="nonzero"/></clipPath></defs><g clip-path="url(#44a334030e)"><path fill="#8b4513" d="M 187.28125 257.5625 C 187.261719 257.558594 187.242188 257.554688 187.222656 257.546875 C 160.726562 249.609375 112.503906 243.445312 112.503906 243.445312 L 116.007812 231.25 C 156.269531 234.855469 186.613281 254.53125 187.503906 255.113281 C 188.390625 254.53125 218.738281 234.855469 258.996094 231.25 L 262.503906 243.445312 C 262.503906 243.445312 214.28125 249.609375 187.785156 257.546875 C 187.761719 257.554688 187.742188 257.558594 187.722656 257.5625 C 187.675781 257.597656 187.601562 257.613281 187.503906 257.605469 C 187.402344 257.613281 187.332031 257.597656 187.28125 257.5625 Z M 187.484375 255.128906 C 187.484375 255.128906 188.382812 254.8125 187.507812 255.117188 L 187.523438 255.128906 L 187.503906 255.121094 Z M 252.738281 219.929688 L 248.519531 221.386719 L 251.113281 224.886719 C 251.113281 224.886719 212.851562 232.628906 191.023438 251.507812 C 191.023438 251.507812 220.742188 231.804688 257.238281 227.5 Z M 122.265625 219.929688 L 126.484375 221.386719 L 123.890625 224.886719 C 123.890625 224.886719 162.152344 232.628906 183.980469 251.507812 C 183.980469 251.507812 154.265625 231.804688 117.765625 227.5 Z M 192.753906 204.054688 C 192.753906 204.054688 205.957031 188.304688 230.351562 187.515625 L 251.863281 217.628906 C 251.863281 217.628906 205.523438 234.144531 190.527344 249.839844 C 190.527344 249.839844 208.296875 228.214844 245.597656 215.726562 L 228.503906 191 C 228.503906 191 211.503906 190.03125 192.753906 204.054688 Z M 182.253906 204.054688 C 182.253906 204.054688 169.050781 188.304688 144.65625 187.515625 L 123.140625 217.628906 C 123.140625 217.628906 169.484375 234.144531 184.476562 249.839844 C 184.476562 249.839844 166.707031 228.214844 129.40625 215.726562 L 146.503906 191 C 146.503906 191 163.503906 190.03125 182.253906 204.054688 Z M 182.253906 204.054688 " fill-opacity="1" fill-rule="evenodd"/></g><g clip-path="url(#0286dae0bf)"><path fill="#46620d" d="M 212.804688 164.835938 C 207.3125 170.484375 199.796875 173.253906 190.429688 173.09375 C 191.421875 170.601562 192.675781 166.5625 192.949219 161.546875 C 196.917969 154.757812 204.382812 146.03125 218.429688 136.847656 C 219.015625 136.464844 219.179688 135.679688 218.792969 135.097656 C 218.410156 134.511719 217.625 134.347656 217.039062 134.730469 C 204.621094 142.851562 197.257812 150.671875 192.90625 156.917969 C 192.695312 154.042969 192.117188 150.949219 191.003906 147.71875 C 196.730469 138.808594 207.75 131.308594 223.890625 125.359375 C 224.226562 132.832031 224.011719 153.316406 212.804688 164.835938 Z M 142.597656 114.109375 C 166.414062 122.789062 181.164062 134.246094 186.460938 148.1875 C 189.414062 155.96875 188.695312 163.015625 187.492188 167.71875 C 186.835938 164.90625 185.75 161.394531 183.957031 157.421875 C 181.335938 151.625 177.730469 146.054688 173.242188 140.863281 C 167.652344 134.390625 160.667969 128.496094 152.480469 123.339844 C 151.886719 122.96875 151.105469 123.144531 150.730469 123.734375 C 150.359375 124.328125 150.535156 125.109375 151.125 125.480469 C 169.09375 136.792969 177.605469 149.585938 181.582031 158.324219 C 184.511719 164.757812 185.480469 169.996094 185.800781 172.714844 L 185.738281 172.625 C 173.21875 173.359375 163.238281 170.003906 156.066406 162.640625 C 147.367188 153.703125 144.214844 140.300781 143.105469 130.632812 C 142.300781 123.625 142.417969 117.5 142.597656 114.109375 Z M 228.105469 122.046875 C 228.035156 121.378906 227.65625 120.777344 227.085938 120.417969 C 226.519531 120.058594 225.8125 119.976562 225.175781 120.199219 C 208.070312 126.113281 195.945312 133.726562 188.964844 142.90625 C 186.089844 137.210938 181.695312 131.894531 175.855469 127.054688 C 167.390625 120.042969 155.773438 113.953125 141.324219 108.957031 C 140.6875 108.738281 139.984375 108.816406 139.414062 109.179688 C 138.84375 109.539062 138.46875 110.136719 138.394531 110.808594 C 138.355469 111.171875 137.421875 119.910156 138.6875 131.03125 C 140.382812 145.917969 145.285156 157.914062 152.875 165.710938 C 160.269531 173.316406 170.183594 177.15625 182.386719 177.15625 C 183.558594 177.15625 184.75 177.117188 185.964844 177.046875 L 185.964844 220.460938 C 185.964844 221.683594 186.957031 222.671875 188.183594 222.671875 C 189.40625 222.671875 190.398438 221.683594 190.398438 220.460938 L 190.398438 177.523438 C 190.675781 177.527344 190.953125 177.53125 191.226562 177.53125 C 201.457031 177.53125 209.773438 174.308594 215.984375 167.921875 C 222.34375 161.386719 226.449219 151.355469 227.867188 138.917969 C 228.921875 129.644531 228.140625 122.355469 228.105469 122.046875 " fill-opacity="1" fill-rule="nonzero"/></g><g clip-path="url(#ba2fb6f767)"><g clip-path="url(#f672188e89)"><g clip-path="url(#6d17c88397)"><g clip-path="url(#87a489c88f)"><path fill="#3aafaf" d="M 218.613281 76.550781 C 217.480469 76.316406 214.007812 75.117188 208.027344 73.855469 C 205.074219 73.296875 201.542969 72.675781 197.390625 72.105469 C 196.371094 71.90625 195.28125 71.929688 194.226562 71.84375 C 193.171875 71.753906 192.007812 71.632812 190.808594 71.621094 C 189.644531 71.5 188.410156 71.597656 187.246094 71.472656 C 186.046875 71.460938 184.738281 71.414062 183.507812 71.511719 C 182.164062 71.578125 180.855469 71.53125 179.511719 71.59375 C 178.171875 71.65625 176.792969 71.832031 175.339844 71.859375 C 173.890625 71.890625 172.476562 72.171875 170.992188 72.3125 C 169.503906 72.453125 168.019531 72.589844 166.574219 72.984375 C 160.492188 73.980469 154.128906 75.492188 147.636719 77.808594 C 141.03125 80.085938 134.300781 83.171875 127.65625 87.125 C 121.011719 91.078125 114.347656 95.871094 108.210938 101.671875 C 101.964844 107.4375 96.207031 113.957031 91.195312 121.554688 C 86.214844 129.039062 81.796875 137.421875 78.628906 146.4375 C 72.144531 164.539062 69.8125 185.144531 73.761719 205.652344 C 77.488281 226.097656 87.238281 246.125 101.996094 262.054688 C 103.777344 264.054688 105.847656 265.90625 107.769531 267.828125 C 109.839844 269.679688 111.800781 271.496094 113.9375 273.125 C 116.039062 274.867188 118.320312 276.421875 120.457031 278.050781 C 121.527344 278.867188 122.738281 279.605469 123.84375 280.308594 C 124.433594 280.734375 124.945312 281.015625 125.535156 281.441406 L 127.261719 282.460938 C 136.699219 288.054688 146.949219 292.210938 157.640625 294.941406 C 178.917969 300.367188 201.664062 299.140625 222.046875 292 C 242.429688 284.855469 260.273438 271.976562 273.1875 256 C 279.648438 248.011719 284.78125 239.246094 288.789062 230.253906 C 292.683594 221.226562 295.375 211.820312 296.941406 202.546875 C 299.859375 183.933594 298.027344 165.890625 293.007812 150.347656 C 288.027344 134.699219 280.191406 121.648438 271.570312 111.492188 C 267.261719 106.414062 262.855469 102.027344 258.5 98.261719 C 254.109375 94.601562 249.800781 91.453125 245.792969 88.878906 C 237.777344 83.726562 230.894531 80.738281 226.171875 78.90625 C 225.003906 78.421875 223.941406 77.96875 223.0625 77.695312 C 222.1875 77.421875 221.308594 77.148438 220.796875 76.871094 C 219.589844 76.492188 218.933594 76.289062 218.933594 76.289062 C 228.5625 78.566406 237.960938 81.976562 246.839844 86.671875 C 255.71875 91.367188 264.109375 97.238281 271.542969 104.253906 C 281.148438 114.71875 288.785156 126.859375 294.050781 140.070312 C 299.347656 153.167969 302.15625 167.300781 302.460938 181.371094 C 302.667969 188.425781 302.148438 195.492188 301.046875 202.5 C 299.945312 209.507812 298.183594 216.3125 295.765625 222.910156 C 291.152344 236.171875 284.125 248.683594 275.03125 259.34375 C 257.027344 280.847656 231.015625 295.636719 203.417969 299.6875 C 189.65625 301.785156 175.484375 301.347656 161.921875 298.566406 C 148.285156 295.640625 135.289062 290.265625 123.527344 282.863281 C 111.765625 275.460938 101.558594 265.773438 93.25 254.628906 C 84.9375 243.480469 78.742188 230.945312 74.824219 217.675781 C 67.128906 191.054688 69.371094 161.867188 81.242188 136.890625 C 87.035156 124.476562 95.0625 112.996094 105.015625 103.445312 C 114.855469 93.859375 126.402344 86.132812 138.9375 80.640625 C 151.472656 75.144531 164.992188 71.890625 178.527344 71.285156 C 191.953125 70.652344 205.679688 72.519531 218.613281 76.550781 Z M 218.613281 76.550781 " fill-opacity="1" fill-rule="nonzero"/></g></g></g></g><g clip-path="url(#c0e1b30b24)"><g clip-path="url(#b4c0b5e311)"><g clip-path="url(#660aad8b06)"><g clip-path="url(#f0dc16dd63)"><path fill="#3aafaf" d="M 137.496094 75.613281 C 137.066406 75.839844 136.09375 76.257812 134.722656 76.796875 C 133.320312 77.441406 131.449219 78.425781 129.292969 79.5625 C 124.800781 82.015625 118.765625 85.558594 111.820312 90.867188 C 104.875 96.171875 97.457031 103.382812 90.226562 112.695312 C 83.214844 122.078125 76.496094 133.601562 72.175781 147.078125 C 67.601562 160.59375 65.207031 175.996094 66.203125 192.09375 C 67.199219 208.1875 71.585938 224.980469 79.648438 240.386719 C 87.789062 255.9375 99.496094 270.070312 114.300781 280.832031 C 121.632812 286.25 129.707031 290.8125 138.058594 294.5 C 146.550781 298.113281 155.464844 300.769531 164.609375 302.292969 C 182.828125 305.5625 201.652344 304.199219 219.019531 299.007812 C 236.316406 293.671875 252.234375 284.65625 265.011719 272.972656 C 277.757812 261.402344 287.515625 247.449219 293.851562 232.914062 C 300.183594 218.378906 303.355469 203.582031 304.035156 189.816406 C 304.378906 182.933594 304.035156 176.320312 303.226562 170.042969 C 302.527344 163.800781 301.328125 158.003906 299.769531 152.578125 C 299.066406 149.824219 298.148438 147.371094 297.371094 144.839844 C 296.914062 143.613281 296.453125 142.382812 295.960938 141.265625 C 295.769531 140.726562 295.5 140.039062 295.308594 139.496094 C 295.007812 138.921875 294.816406 138.378906 294.625 137.835938 C 294.132812 136.71875 293.636719 135.601562 293.21875 134.628906 C 292.691406 133.621094 292.164062 132.613281 291.746094 131.640625 C 291.21875 130.628906 290.800781 129.65625 290.238281 128.757812 C 289.675781 127.859375 289.257812 126.886719 288.808594 126.023438 C 284.859375 119.007812 281.132812 113.992188 278.457031 110.625 C 275.777344 107.261719 274.253906 105.582031 274.253906 105.582031 C 286.058594 117.09375 295.664062 131.414062 302.03125 147.253906 C 303.769531 152.859375 305.222656 158.613281 306.027344 164.527344 L 306.429688 166.703125 L 306.691406 168.953125 C 306.828125 170.441406 307.109375 171.855469 307.136719 173.308594 C 307.300781 176.253906 307.578125 179.230469 307.523438 182.105469 C 307.6875 185.050781 307.488281 188 307.398438 190.984375 C 307.09375 193.902344 307.003906 196.886719 306.585938 199.769531 C 306.277344 202.6875 305.609375 205.609375 305.191406 208.492188 C 304.855469 209.953125 304.519531 211.417969 304.21875 212.769531 L 303.675781 214.890625 C 303.472656 215.550781 303.234375 216.316406 303.027344 216.976562 L 301.835938 221.183594 L 300.425781 225.324219 C 299.980469 226.753906 299.425781 228.144531 298.90625 229.429688 C 298.351562 230.824219 297.796875 232.21875 297.167969 233.46875 C 294.761719 238.863281 291.957031 244.015625 288.929688 249.09375 C 285.714844 254 282.285156 258.835938 278.484375 263.3125 C 274.574219 267.757812 270.511719 271.914062 266.15625 275.859375 C 248.582031 291.351562 226.40625 301.550781 203.335938 304.964844 C 197.574219 305.699219 191.742188 306.292969 185.855469 306.265625 C 184.40625 306.292969 182.988281 306.214844 181.460938 306.101562 C 180.042969 306.019531 178.589844 306.050781 177.097656 305.824219 L 172.765625 305.4375 L 168.507812 304.835938 C 162.753906 304.003906 156.992188 302.8125 151.511719 301.105469 C 148.738281 300.359375 145.957031 299.253906 143.214844 298.398438 C 140.542969 297.324219 137.730469 296.328125 135.125 295.035156 C 113.988281 285.3125 95.851562 269.417969 83.601562 249.691406 C 71.03125 230.230469 64.527344 207.113281 64.886719 183.96875 C 65.210938 160.933594 72.476562 138.011719 85.1875 118.835938 C 97.972656 99.804688 116.421875 84.589844 137.496094 75.613281 Z M 137.496094 75.613281 " fill-opacity="1" fill-rule="nonzero"/></g></g></g></g><g clip-path="url(#a6daf1b36d)"><g clip-path="url(#5655a7fe61)"><g clip-path="url(#6aa48d29d6)"><g clip-path="url(#dd9cf5f1d4)"><path fill="#3aafaf" d="M 80.1875 117.519531 C 79.972656 117.816406 79.515625 118.515625 78.808594 119.621094 C 78.105469 120.726562 77.261719 122.273438 76.207031 124.113281 C 74.207031 127.828125 71.367188 133.085938 68.878906 139.90625 C 66.285156 146.6875 63.683594 155.035156 62.089844 164.78125 C 60.386719 174.492188 59.941406 185.5625 61.074219 197.363281 C 61.65625 203.207031 62.753906 209.332031 64.289062 215.597656 C 65.859375 221.75 67.976562 228.074219 70.632812 234.203125 C 75.917969 246.574219 83.554688 258.714844 93.53125 269.539062 C 103.394531 280.324219 115.523438 289.648438 129.160156 296.429688 C 142.800781 303.210938 157.917969 307.558594 173.308594 309.101562 C 188.699219 310.644531 204.359375 309.019531 218.878906 304.867188 C 233.507812 300.75 247.070312 293.890625 258.636719 285.328125 C 270.316406 276.792969 279.921875 266.414062 287.492188 255.636719 C 291.238281 250.175781 294.433594 244.546875 297.125 238.996094 C 299.816406 233.449219 301.960938 227.730469 303.78125 222.273438 C 307.203125 211.289062 308.929688 200.742188 309.441406 191.378906 C 309.953125 182.019531 309.363281 173.882812 308.4375 167.207031 C 308.226562 165.574219 307.867188 164.019531 307.621094 162.496094 C 307.5 161.734375 307.339844 161.082031 307.21875 160.320312 C 307.058594 159.667969 306.902344 159.015625 306.746094 158.367188 C 306.429688 157.0625 306.1875 155.902344 305.914062 154.851562 C 305.640625 153.804688 305.332031 152.863281 305.132812 151.957031 C 304.59375 150.222656 304.277344 148.921875 303.96875 147.980469 C 303.660156 147.039062 303.542969 146.644531 303.542969 146.644531 C 306.101562 153.101562 308.113281 159.757812 309.699219 166.636719 C 311.171875 173.484375 312.105469 180.523438 312.421875 187.609375 C 312.132812 197.402344 310.757812 207.214844 308.179688 216.652344 C 305.597656 226.09375 301.996094 235.332031 297.402344 243.902344 C 288.253906 261.296875 274.917969 276.300781 259.007812 287.609375 C 251.015625 293.195312 242.425781 297.988281 233.453125 301.699219 C 224.480469 305.410156 215.015625 308.003906 205.386719 309.582031 C 202.960938 310.03125 200.605469 310.257812 198.105469 310.566406 C 195.714844 310.902344 193.28125 310.988281 190.851562 311.074219 C 188.453125 311.050781 185.988281 311.246094 183.589844 311.222656 C 181.226562 311.089844 178.6875 311.140625 176.355469 310.894531 C 166.71875 310.183594 157.0625 308.378906 147.855469 305.507812 C 129.332031 299.734375 112.289062 289.601562 98.304688 276.207031 C 91.386719 269.472656 85.179688 261.996094 79.871094 253.953125 C 74.59375 245.800781 70.328125 237.121094 67.140625 228.054688 C 63.84375 218.953125 61.738281 209.5 60.613281 199.992188 C 59.601562 190.515625 59.597656 180.875 60.796875 171.246094 C 61.957031 161.726562 64.175781 152.296875 67.457031 143.316406 L 68.769531 139.871094 L 70.160156 136.566406 C 71.097656 134.328125 72.113281 132.234375 73.160156 130.03125 C 74.28125 127.972656 75.332031 125.765625 76.5625 123.742188 C 77.6875 121.679688 78.84375 119.511719 80.1875 117.519531 Z M 80.1875 117.519531 " fill-opacity="1" fill-rule="nonzero"/></g></g></g></g><g clip-path="url(#ffd5ba2450)"><g clip-path="url(#1c80aee03d)"><g clip-path="url(#e041b191b3)"><g clip-path="url(#0a44e09516)"><path fill="#3aafaf" d="M 58.144531 159.695312 C 57.984375 160.972656 56.199219 168.246094 55.777344 180.40625 C 55.277344 192.421875 56.472656 209.425781 63.039062 228.101562 C 66.410156 237.34375 70.953125 247.074219 77.160156 256.480469 C 80.261719 261.183594 83.761719 265.769531 87.550781 270.203125 C 88.519531 271.347656 89.519531 272.382812 90.519531 273.417969 C 91.484375 274.5625 92.484375 275.597656 93.59375 276.667969 C 94.703125 277.734375 95.703125 278.769531 96.8125 279.839844 C 97.957031 280.796875 99.066406 281.867188 100.210938 282.828125 C 104.863281 286.808594 109.691406 290.601562 114.914062 293.914062 C 120.132812 297.230469 125.640625 300.390625 131.460938 302.929688 L 133.660156 303.976562 C 134.394531 304.324219 135.160156 304.566406 135.894531 304.914062 C 137.394531 305.5 138.894531 306.089844 140.285156 306.644531 C 143.320312 307.710938 146.355469 308.777344 149.347656 309.589844 C 152.417969 310.546875 155.589844 311.171875 158.726562 311.910156 C 160.292969 312.277344 161.898438 312.535156 163.5 312.792969 C 164.300781 312.921875 165.101562 313.050781 165.90625 313.183594 L 168.34375 313.460938 C 169.980469 313.609375 171.546875 313.976562 173.109375 313.980469 L 177.910156 314.394531 C 179.550781 314.542969 181.109375 314.546875 182.671875 314.550781 C 183.507812 314.570312 184.234375 314.554688 185.070312 314.574219 L 187.5 314.492188 C 189.097656 314.386719 190.625 314.5 192.253906 314.285156 C 193.851562 314.179688 195.445312 314.074219 197.042969 313.96875 C 198.640625 313.863281 200.160156 313.617188 201.789062 313.398438 C 203.386719 313.296875 204.941406 312.9375 206.460938 312.6875 C 209.613281 312.222656 212.613281 311.472656 215.722656 310.753906 C 218.757812 309.890625 221.757812 309.140625 224.714844 308.132812 C 227.640625 307.238281 230.523438 306.085938 233.371094 305.046875 C 234.742188 304.511719 236.144531 303.863281 237.550781 303.214844 L 239.640625 302.300781 L 241.652344 301.242188 C 252.304688 296.003906 261.835938 289.335938 270.199219 282.179688 C 278.488281 274.882812 285.273438 266.996094 290.828125 259.207031 C 296.382812 251.417969 300.484375 243.660156 303.578125 236.429688 C 306.636719 229.308594 308.660156 222.828125 310.082031 217.488281 C 310.792969 214.820312 311.328125 212.332031 311.726562 210.289062 C 312.15625 208.132812 312.484375 206.308594 312.675781 204.921875 C 312.902344 203.425781 313.023438 202.257812 313.121094 201.566406 C 313.25 200.761719 313.246094 200.398438 313.246094 200.398438 C 313.027344 206.113281 312.191406 211.878906 311.246094 217.609375 L 310.382812 221.921875 L 309.953125 224.078125 L 309.414062 226.195312 L 308.332031 230.4375 L 307.03125 234.613281 C 300.8125 249.546875 291.890625 263.515625 280.671875 275.203125 C 269.5625 286.921875 256.125 296.472656 241.585938 303.390625 C 227.042969 310.304688 211.214844 314.410156 195.078125 315.644531 C 179.082031 316.808594 162.816406 314.992188 147.472656 310.207031 C 132.128906 305.425781 117.714844 298.042969 105.070312 288.074219 C 92.5 278.253906 81.804688 265.882812 73.699219 252.148438 C 65.59375 238.417969 60.003906 223.175781 57.34375 207.40625 C 54.605469 191.492188 54.84375 175.296875 58.144531 159.695312 Z M 58.144531 159.695312 " fill-opacity="1" fill-rule="nonzero"/></g></g></g></g><g clip-path="url(#066054f55f)"><g clip-path="url(#474368f7d4)"><g clip-path="url(#abe4caaeb5)"><g clip-path="url(#8c645f9cf7)"><path fill="#3aafaf" d="M 52.136719 199.035156 C 52.21875 199.542969 52.363281 201.394531 52.78125 204.296875 C 53.0625 205.710938 53.347656 207.488281 53.710938 209.40625 C 54.042969 211.4375 54.589844 213.539062 55.144531 216 C 55.351562 217.269531 55.808594 218.496094 56.125 219.800781 C 56.550781 221.136719 56.832031 222.550781 57.253906 223.886719 C 58.179688 226.707031 59.148438 229.78125 60.367188 232.8125 C 62.738281 239.09375 65.882812 245.976562 70.082031 252.949219 C 74.25 260.03125 79.359375 267.167969 85.519531 274.027344 C 91.675781 280.890625 98.882812 287.472656 107.023438 293.382812 C 123.296875 305.207031 143.429688 313.527344 164.378906 316.921875 C 185.359375 320.210938 207.003906 318.277344 225.769531 312.078125 C 244.613281 306.019531 260.695312 296.089844 272.480469 285.664062 C 278.410156 280.523438 283.433594 275.21875 287.515625 270.226562 C 288.507812 268.96875 289.5 267.710938 290.457031 266.5625 C 291.417969 265.417969 292.15625 264.199219 293.007812 263.019531 C 294.671875 260.765625 296.046875 258.664062 297.246094 256.75 C 298.554688 254.867188 299.496094 252.992188 300.449219 251.480469 C 300.941406 250.671875 301.292969 249.9375 301.714844 249.34375 C 302.03125 248.722656 302.347656 248.097656 302.660156 247.472656 C 303.820312 245.300781 304.414062 244.160156 304.414062 244.160156 C 300.730469 252.894531 296.171875 261.355469 290.582031 269.253906 C 273.761719 290.039062 250.777344 305.53125 225.46875 313.429688 C 212.796875 317.433594 199.542969 319.449219 186.289062 319.535156 C 173.035156 319.621094 159.816406 317.671875 147.175781 313.851562 L 144.765625 313.101562 L 142.390625 312.238281 C 140.890625 311.652344 139.246094 311.140625 137.746094 310.550781 C 134.636719 309.339844 131.636719 308.164062 128.628906 306.625 C 125.550781 305.304688 122.6875 303.691406 119.789062 302.183594 C 116.960938 300.457031 114.097656 298.84375 111.304688 297.007812 C 108.472656 295.28125 105.890625 293.152344 103.242188 291.242188 C 100.65625 289.109375 98.039062 287.089844 95.710938 284.917969 C 93.273438 282.710938 90.867188 280.398438 88.609375 278.003906 C 86.347656 275.613281 84.121094 273.113281 82.039062 270.535156 C 65.28125 250.609375 54.777344 225.285156 52.136719 199.035156 Z M 52.136719 199.035156 " fill-opacity="1" fill-rule="nonzero"/></g></g></g></g><g clip-path="url(#1724fb4ecb)"><g clip-path="url(#7d3d8fb876)"><g clip-path="url(#d9804dd076)"><g clip-path="url(#49c41ecb99)"><path fill="#3aafaf" d="M 53.96875 224.792969 C 54.308594 225.621094 55.675781 230.503906 58.722656 238.082031 C 61.917969 245.585938 67.015625 255.851562 74.953125 266.640625 C 82.894531 277.429688 93.710938 288.632812 107.289062 297.925781 C 120.832031 307.328125 136.984375 314.53125 153.945312 318.371094 C 170.871094 322.320312 188.496094 322.875 204.503906 320.511719 C 220.542969 318.039062 234.976562 313.019531 246.558594 307.109375 C 247.996094 306.351562 249.433594 305.59375 250.730469 304.914062 C 252.058594 304.121094 253.460938 303.476562 254.679688 302.652344 C 257.195312 301.144531 259.566406 299.714844 261.75 298.105469 C 262.824219 297.355469 263.898438 296.605469 264.832031 295.933594 C 265.796875 295.148438 266.730469 294.476562 267.660156 293.800781 C 268.589844 293.128906 269.414062 292.421875 270.199219 291.820312 C 271.023438 291.113281 271.808594 290.515625 272.488281 289.882812 C 275.386719 287.535156 277.488281 285.417969 278.988281 284.078125 C 279.699219 283.335938 280.308594 282.921875 280.699219 282.441406 C 281.054688 282.070312 281.234375 281.886719 281.234375 281.886719 C 276.042969 287.738281 270.40625 293.089844 264.289062 298.054688 C 246.441406 310.566406 225.53125 318.628906 204.050781 321.578125 C 193.257812 323.03125 182.367188 323.253906 171.523438 322.164062 C 160.679688 321.074219 150.136719 318.632812 139.9375 315.089844 C 119.539062 308.011719 100.824219 295.910156 85.886719 280.171875 C 78.476562 272.316406 71.917969 263.644531 66.546875 254.257812 C 61.363281 245.050781 57.105469 235.167969 53.96875 224.792969 Z M 53.96875 224.792969 " fill-opacity="1" fill-rule="nonzero"/></g></g></g></g></svg>